<?xml version="1.0" encoding="UTF-8" standalone="no"?>
<!-- Created with Inkscape (http://www.inkscape.org/) -->

<svg
   width="143.93335mm"
   height="142.875mm"
   viewBox="0 0 143.93335 142.875"
   version="1.1"
   id="svg1"
   xml:space="preserve"
   xmlns="http://www.w3.org/2000/svg"
   xmlns:svg="http://www.w3.org/2000/svg"><defs
     id="defs1" /><g
     id="layer1"
     transform="translate(-32.941408,-77.360924)"><path
       style="fill:#4877f5"
       d="M 32.941408,148.79843 V 117.36475 A 40.003822,40.003822 135 0 1 72.94523,77.360924 h 31.96285 40.29796 a 31.668707,31.668707 45 0 1 31.66871,31.668706 v 39.7688 37.66543 a 33.772071,33.772071 135 0 1 -33.77207,33.77207 H 104.90808 69.233672 A 36.292264,36.292264 45 0 1 32.941408,183.94367 Z m 71.884262,58.44312 c 0.34656,-0.21998 0.42568,-2.45387 0.35278,-9.96057 l -0.094,-9.67699 -14.463891,-0.17639 C 76.35336,187.25361 76.127882,187.23963 74.04,186.40014 c -2.895304,-1.16415 -6.098669,-4.36752 -7.262817,-7.26282 l -0.851072,-2.11667 -0.103513,-25.33364 c -0.06064,-14.84158 0.03641,-26.34338 0.234349,-27.77171 0.598925,-4.32192 2.649091,-7.83121 5.866386,-10.04156 3.356184,-2.30577 3.187291,-2.29338 31.249287,-2.29338 h 25.28021 l 0.26403,13.31737 c 0.14522,7.32455 0.20546,28.74238 0.13387,47.59518 -0.0716,18.8528 -0.0508,34.35672 0.0462,34.45314 0.097,0.0964 4.70076,0.22093 10.23055,0.27668 l 10.05417,0.10135 0.0895,-47.87185 0.0895,-47.87187 h 8.4654 8.4654 v -9.88394 -9.883935 l -47.88958,0.09436 -47.889588,0.09436 -3.043515,1.141214 c -11.412622,4.279325 -19.210212,13.196491 -21.721045,24.839711 -0.583936,2.70782 -0.634522,5.32182 -0.62367,32.22741 0.01285,31.86359 -0.01268,31.40625 2.036694,36.47999 1.797635,4.45049 3.841712,7.50896 7.476496,11.18676 5.338749,5.40194 11.166043,8.3612 18.197462,9.24116 3.237983,0.40522 31.376106,0.51438 31.990966,0.1241 z m -6.311141,-49.88826 c 1.04931,-2.26419 7.764081,-16.10597 8.043371,-16.58055 0.0856,-0.14553 -0.85781,-0.26459 -2.09655,-0.26459 h -2.25227 l -3.118421,6.4382 c -1.71513,3.541 -3.8082,7.82725 -4.65126,9.525 l -1.53285,3.0868 h 2.29308 2.29309 z m -4.67811,-3.51487 0.224,-1.63428 -2.42548,-1.23688 -2.42548,-1.23687 1.05834,-0.39716 c 4.82514,-1.81071 4.9181,-1.8756 5.24482,-3.66068 0.16826,-0.91933 0.22234,-1.75511 0.12016,-1.85729 -0.19327,-0.19326 -11.541987,3.98386 -11.943257,4.39596 -0.125552,0.12894 -0.333167,0.88085 -0.461367,1.67092 l -0.233092,1.43648 5.047478,2.30103 c 2.776108,1.26556 5.165018,2.20023 5.308678,2.07704 0.14366,-0.12319 0.362,-0.95941 0.4852,-1.85827 z m 16.679121,-0.23639 c 2.98709,-1.14164 5.5518,-2.2926 5.69937,-2.55771 0.14757,-0.2651 0.32296,-1.02309 0.38977,-1.68442 l 0.12145,-1.20242 -4.89628,-2.23716 c -2.69296,-1.23044 -5.02191,-2.23717 -5.17545,-2.23717 -0.15353,0 -0.38299,0.51594 -0.50991,1.14653 -0.12691,0.63059 -0.30695,1.41797 -0.40009,1.74974 -0.12901,0.45959 0.44099,0.91057 2.39385,1.89402 l 2.56319,1.2908 -3.03812,1.21574 c -2.92461,1.17033 -3.04671,1.26432 -3.26826,2.51571 -0.12659,0.71498 -0.31674,1.59345 -0.42256,1.95215 -0.23112,0.78342 -0.633,0.89679 6.54304,-1.84581 z"
       id="path1" /></g></svg>
